<svg width="1140" height="600" viewBox="0 0 1140 600" fill="none" xmlns="http://www.w3.org/2000/svg">
<g clip-path="url(#clip0)">
<rect width="1140" height="600" fill="white"/>
<g opacity="0.504511">
<path fill-rule="evenodd" clip-rule="evenodd" d="M970.077 462.632C982.632 542.694 678.15 594.916 416.075 558.472C154.001 522.027 33.7731 379.709 158.831 303.876C283.888 228.042 957.522 382.57 970.077 462.632Z" fill="#F2F2F2"/>
</g>
<path fill-rule="evenodd" clip-rule="evenodd" d="M593.418 129.011C598.155 125.923 605.505 127.891 610.275 129.713C612.112 130.416 616.808 132.664 620.292 135.194C619.831 133.44 619.421 131.671 619.062 129.888C617.589 122.556 616.574 115.085 616.086 107.657C615.959 105.72 616.124 103.555 616.292 101.362L616.292 101.362C616.349 100.619 616.406 99.8728 616.452 99.1311C616.261 98.9558 616.132 98.7139 616.078 98.3861C616.058 98.522 616.047 98.6311 616.038 98.7144C616.024 98.8476 616.017 98.9153 615.992 98.9223C615.967 98.9296 615.923 98.8723 615.834 98.756C615.8 98.7113 615.759 98.658 615.71 98.5963C612.186 94.1009 609.226 89.0354 608.819 83.4669C608.475 78.7443 613.025 69.8087 619.474 75.9944C622.359 78.757 621.61 98.1588 617.276 99.3478C618.434 105.777 619.89 112.195 621.713 118.532C621.986 118.49 622.265 118.487 622.541 118.519C622.514 116.943 622.512 115.224 622.587 114.633C623.237 109.541 628.224 99.203 636.164 101.21C642.265 102.753 638.525 109.103 636.449 111.882C633.107 116.356 629.326 118.294 624.538 120.621C624.442 121.583 623.715 122.142 622.857 122.323C626.063 132.557 630.275 142.537 635.787 151.965L635.934 151.366L635.934 151.366C636.634 148.504 637.45 145.168 637.966 144.467C640.668 140.799 646.649 136.32 652.164 138.49C663.747 143.054 651.174 156.171 641.313 157.598C640.903 158.081 640.469 158.47 640.008 158.692C641.924 161.538 643.972 164.325 646.163 167.039C649.449 171.123 652.981 175.193 656.683 179.24C656.797 176.074 658.263 169.02 658.678 168.262C661.207 163.659 668.495 158.922 674.408 162.192C681.058 165.879 675.028 172.846 671.235 175.999C669.681 177.292 661.991 182.029 659.279 182.051C668.224 191.593 678.098 200.972 688.136 210.012C687.305 205.965 686.218 194.82 686.34 193.583C686.963 187.199 691.882 176.987 701.573 179.475C710.974 181.885 706.815 192.494 703.597 197.551C701.648 200.611 698.952 203.721 695.702 205.856C695.116 206.24 694.35 206.554 693.587 206.868C692.666 207.246 691.746 207.623 691.146 208.122C690.61 208.567 690.446 209.078 690.283 209.585C690.111 210.12 689.94 210.65 689.336 211.093C694.761 215.957 700.224 220.72 705.609 225.351C708.15 227.536 710.737 229.679 713.35 231.796C714.779 231.29 716.817 231.955 716.711 233.682C716.695 233.933 716.627 234.149 716.536 234.347C718.515 235.919 720.508 237.479 722.516 239.022C722.47 238.572 722.483 237.938 722.576 237.063C721.13 238.817 721.19 236.262 721.236 234.314L721.237 234.314C721.253 233.625 721.267 233.013 721.213 232.693C721 231.441 720.726 230.202 720.451 228.964C719.865 226.32 719.28 223.685 719.31 220.956C719.373 215.165 723.672 205.456 732.72 208.905C741.039 212.07 738.012 220.654 734.874 226.036C732.887 229.441 730.169 232.482 727.327 235.393C726.821 235.913 726.258 236.616 725.702 237.313C724.875 238.347 724.061 239.366 723.459 239.746C731.183 245.653 739.089 251.387 746.996 257.121L746.997 257.122C750.538 259.69 754.08 262.259 757.605 264.843C757.758 264.275 757.885 263.713 757.994 263.187C757.774 263.399 757.474 263.499 757.089 263.479C756.986 263.045 756.838 262.467 756.66 261.774L756.659 261.773C754.482 253.302 747.851 227.503 765.807 232.503C778.962 236.177 769.676 258.642 759.864 266.5C765.819 270.888 771.717 275.331 777.477 279.908C781.644 283.219 785.689 286.644 789.58 290.183C787.567 285.6 785.67 279.668 786.915 274.947C788.728 268.077 797.222 261.59 805.515 265.5C815.854 270.394 807.9 277.079 800.441 283.347C796.633 286.548 792.953 289.64 791.904 292.33C804.273 303.939 814.832 316.835 821.888 331.526C829.561 347.502 836.684 368.968 832.745 386.842C833.472 378.983 830.361 369.115 828.176 362.185L828.176 362.184C827.879 361.241 827.599 360.352 827.347 359.529C824.065 348.781 819.401 338.323 813.255 328.534C803.411 312.857 790.407 299.549 775.395 287.466C771.977 288.482 768.264 290.365 765.189 291.924C763.303 292.88 761.657 293.714 760.466 294.153C754.721 296.268 743.693 299.3 740.033 292.637C736.435 286.086 745.619 282.423 751.311 280.954C756.812 279.537 761.77 279.708 766.901 280.87C758.955 274.857 750.815 269.034 742.677 263.213L742.676 263.212C741.179 262.142 739.682 261.071 738.187 259.999C736.118 261.447 733.833 263.54 731.407 265.762C723.707 272.814 714.585 281.169 706.438 274.343C694.143 264.041 717.657 253.571 727.676 254.388C728.905 254.488 730.095 254.709 731.256 255.011C721.039 247.608 710.981 240.053 701.468 231.967C699.761 232.233 697.043 234.377 693.779 236.952C686.442 242.741 676.342 250.71 668.734 244.435C663.242 239.906 665.122 232.852 670.431 228.818C675.76 224.767 683.487 224.774 690.054 226.138C692.893 226.725 695.512 227.845 697.954 229.211C698.058 229.215 698.157 229.22 698.257 229.225C688.897 221.183 679.479 212.962 670.408 204.46C670.25 204.503 670.087 204.548 669.925 204.593C669.376 205.167 668.458 205.376 667.617 205.25C667.153 205.385 666.68 205.525 666.196 205.667C659.012 207.784 649.777 210.505 642.616 209.331C637.345 208.468 632.563 204.81 637.024 200.307C640.651 196.645 650.492 197.171 655.291 198.039C657.633 198.463 660.182 199.69 662.74 200.922C663.815 201.44 664.891 201.958 665.954 202.418C666.23 201.943 666.712 201.637 667.261 201.491C658.304 192.947 649.757 184.108 642.005 174.884C639.658 175.194 637.056 176.074 634.372 176.982C627.913 179.165 620.982 181.509 616.007 176.462C608.663 169.009 622.475 164.659 629.041 165.367C631.258 165.606 633.444 166.142 635.554 166.851C629.913 159.257 625.605 151.14 622.579 142.615C622.549 142.628 622.522 142.641 622.495 142.654C622.453 142.674 622.41 142.695 622.357 142.714C622.403 142.693 622.443 142.672 622.483 142.65L622.483 142.649C622.513 142.633 622.542 142.617 622.574 142.601C622.272 141.748 621.982 140.892 621.706 140.032C621.193 139.788 620.714 139.609 620.484 139.535C623.467 141.291 610.882 142.15 608.525 142.311C603.314 142.666 596.334 142.798 592.511 139.155C589.301 136.094 589.488 131.572 593.418 129.011ZM833.304 386.867C833.083 389.457 832.535 391.829 831.511 393.785C832.279 391.558 832.868 389.244 833.304 386.867Z" fill="#F2F2F2"/>
<path opacity="0.2" fill-rule="evenodd" clip-rule="evenodd" d="M356.833 -36.4042C353.375 -38.6352 348.008 -37.2101 344.525 -35.8908C343.183 -35.382 339.753 -33.7553 337.209 -31.925C337.546 -33.193 337.846 -34.4721 338.109 -35.7617C339.188 -41.064 339.932 -46.4667 340.292 -51.8379C340.385 -53.2386 340.265 -54.8035 340.144 -56.389L340.144 -56.3896L340.144 -56.3904C340.103 -56.9274 340.061 -57.4667 340.028 -58.0028C340.167 -58.1296 340.261 -58.3045 340.301 -58.5416C340.316 -58.4433 340.324 -58.3645 340.33 -58.3043C340.34 -58.208 340.346 -58.1591 340.364 -58.1539C340.382 -58.1485 340.414 -58.1899 340.479 -58.2742C340.504 -58.3065 340.534 -58.3451 340.57 -58.3897C343.145 -61.6415 345.309 -65.3052 345.608 -69.3319C345.861 -72.7469 342.543 -79.2068 337.831 -74.7319C335.724 -72.7333 336.262 -58.7042 339.426 -57.8458C338.578 -53.1967 337.512 -48.5553 336.178 -43.9727C335.979 -44.0024 335.775 -44.005 335.574 -43.9817C335.594 -45.1208 335.597 -46.3639 335.542 -46.7913C335.07 -50.4732 331.433 -57.9471 325.635 -56.4932C321.179 -55.3758 323.907 -50.7855 325.422 -48.7764C327.86 -45.5419 330.62 -44.1421 334.115 -42.461C334.184 -41.7657 334.715 -41.3617 335.341 -41.2306C332.996 -33.8298 329.916 -26.6115 325.888 -19.7927L325.781 -20.2263L325.781 -20.2266C325.271 -22.2955 324.677 -24.7073 324.3 -25.2138C322.329 -27.8649 317.964 -31.1021 313.936 -29.5312C305.477 -26.2275 314.651 -16.7466 321.851 -15.718C322.15 -15.3687 322.466 -15.0878 322.803 -14.9268C321.403 -12.8684 319.906 -10.8528 318.305 -8.88909C315.904 -5.93535 313.324 -2.99103 310.619 -0.0638783C310.537 -2.35262 309.47 -7.45335 309.167 -8.00128C307.323 -11.3289 302.003 -14.7514 297.685 -12.385C292.828 -9.71701 297.227 -4.68111 299.995 -2.4024C301.13 -1.46814 306.742 1.95498 308.723 1.9696C302.187 8.87235 294.974 15.6574 287.64 22.1971C288.249 19.2706 289.047 11.2115 288.959 10.3172C288.507 5.70076 284.92 -1.68181 277.843 0.120516C270.977 1.86635 274.01 9.53595 276.357 13.1917C277.779 15.4041 279.746 17.652 282.118 19.1945C282.546 19.4723 283.104 19.6991 283.662 19.9256L283.662 19.9256C284.334 20.1986 285.005 20.4711 285.444 20.8318C285.835 21.1535 285.954 21.5229 286.073 21.8893C286.198 22.2762 286.323 22.6596 286.764 22.9796C282.801 26.4985 278.81 29.9442 274.876 33.2942C273.02 34.8754 271.13 36.4259 269.222 37.9572C268.178 37.5919 266.69 38.0734 266.767 39.3219C266.778 39.5033 266.827 39.6597 266.894 39.8032C265.448 40.94 263.993 42.0687 262.526 43.1853C262.559 42.8602 262.55 42.4018 262.483 41.7687C263.538 43.0369 263.495 41.1891 263.462 39.7805C263.45 39.2827 263.44 38.8398 263.48 38.6086C263.636 37.7035 263.837 36.8072 264.038 35.9123L264.038 35.912C264.467 33.9999 264.895 32.094 264.875 30.1211C264.831 25.9331 261.696 18.9142 255.089 21.4109C249.013 23.7024 251.219 29.9085 253.508 33.7989C254.957 36.2608 256.941 38.4588 259.014 40.5628C259.384 40.9385 259.794 41.4471 260.2 41.9506L260.201 41.9507C260.804 42.6982 261.398 43.4347 261.837 43.7088C256.195 47.9829 250.42 52.1315 244.644 56.2804C242.057 58.1388 239.47 59.9973 236.895 61.8671C236.783 61.4571 236.691 61.0504 236.611 60.6702C236.772 60.8237 236.991 60.8953 237.272 60.8812C237.347 60.5668 237.456 60.1493 237.586 59.6477L237.586 59.6472C239.18 53.5215 244.033 34.8638 230.92 38.4852C221.313 41.146 228.084 57.3873 235.244 63.0665C230.895 66.241 226.587 69.456 222.379 72.767C219.335 75.1627 216.38 77.6405 213.537 80.2005C215.009 76.8865 216.397 72.5965 215.49 69.1831C214.169 64.2158 207.97 59.5278 201.913 62.3573C194.363 65.8998 200.167 70.7309 205.61 75.2612C208.389 77.5744 211.075 79.8092 211.839 81.7541C202.804 90.1521 195.088 99.4809 189.93 110.106C184.321 121.66 179.11 137.185 181.979 150.108C181.451 144.426 183.727 137.289 185.325 132.277C185.543 131.595 185.748 130.952 185.932 130.357C188.333 122.584 191.743 115.02 196.235 107.94C203.429 96.6006 212.929 86.9733 223.896 78.2315C226.391 78.9654 229.101 80.3253 231.346 81.4516L231.346 81.4517C232.722 82.1425 233.924 82.7455 234.793 83.0622C238.986 84.5899 247.038 86.7785 249.712 81.96C252.342 77.2217 245.638 74.5754 241.483 73.5154C237.468 72.4926 233.847 72.6178 230.1 73.4593C235.904 69.1087 241.85 64.8958 247.795 60.6837L247.796 60.6833C248.889 59.9086 249.982 59.134 251.075 58.3586C252.585 59.4048 254.252 60.9174 256.022 62.5234C261.641 67.6206 268.298 73.6593 274.25 68.7207C283.231 61.2677 266.067 53.704 258.752 54.2984C257.854 54.3707 256.985 54.5311 256.138 54.7493C263.6 49.3933 270.948 43.9272 277.896 38.0771C279.143 38.2687 281.126 39.8182 283.509 41.6796C288.863 45.8631 296.234 51.6221 301.792 47.0827C305.804 43.8058 304.434 38.7054 300.56 35.7904C296.67 32.8629 291.028 32.8702 286.233 33.859C284.16 34.2841 282.247 35.095 280.464 36.0829C280.388 36.0863 280.315 36.0901 280.242 36.0933C287.08 30.2757 293.96 24.3277 300.587 18.1769C300.702 18.2082 300.821 18.2405 300.94 18.2732C301.34 18.6878 302.01 18.8392 302.624 18.7473C302.797 18.7973 302.972 18.8481 303.149 18.8995C303.318 18.9487 303.489 18.9985 303.661 19.0487C308.906 20.5771 315.648 22.5417 320.877 21.6908C324.726 21.0647 328.219 18.4185 324.963 15.1639C322.317 12.5171 315.131 12.9005 311.627 13.5292C309.917 13.8364 308.055 14.7251 306.187 15.6168C305.402 15.9914 304.616 16.3665 303.839 16.6993C303.638 16.3557 303.286 16.135 302.886 16.0292C309.43 9.8483 315.674 3.45393 321.338 -3.21797C323.051 -2.99433 324.951 -2.35897 326.91 -1.70366C331.625 -0.126788 336.685 1.56556 340.319 -2.08553C345.685 -7.47682 335.602 -10.6177 330.808 -10.1038C329.189 -9.93047 327.592 -9.54194 326.051 -9.02897C330.173 -14.5217 333.322 -20.3924 335.536 -26.5575C335.591 -26.534 335.635 -26.509 335.697 -26.4859C335.664 -26.5011 335.635 -26.5171 335.606 -26.5329C335.591 -26.5409 335.576 -26.5489 335.561 -26.5568C335.554 -26.5604 335.547 -26.5641 335.539 -26.5677C335.76 -27.1845 335.972 -27.8041 336.174 -28.4258C336.549 -28.6022 336.899 -28.7321 337.066 -28.7856C334.887 -27.5151 344.076 -26.8978 345.797 -26.7822C349.601 -26.5271 354.698 -26.4334 357.491 -29.0695C359.836 -31.2837 359.701 -34.5535 356.833 -36.4042ZM181.409 149.598C181.577 151.324 182.077 152.899 183.06 154.19C182.338 152.715 181.797 151.178 181.409 149.598Z" fill="#C1DEE2"/>
<g opacity="0.7">
<path fill-rule="evenodd" clip-rule="evenodd" d="M730.527 268.097C749.179 267.272 772.247 276.553 774.237 293.838C775.682 306.396 775.234 318.919 777.471 331.459C779.26 341.48 783.044 351.101 788.203 360.23C793.165 369.009 803.457 376.481 806.134 385.859C807.84 391.835 806.885 400.241 804.532 406.086C801.671 413.192 803.192 412.631 808.893 418.594C820.065 430.28 830.125 442.263 837.239 456.22C847.486 476.323 854.205 499.821 850.401 521.826C849.917 524.62 849.344 534.648 844.83 535.349C839.789 536.133 842.146 530.398 842.415 528.545C844.131 516.724 845.655 506.392 843.586 494.386C835.602 448.065 796.623 417.546 771.242 378.232C769.847 376.205 766.901 371.377 764.853 368.192C761.62 363.164 758.369 353.596 753.992 349.868C745.749 342.844 753.327 356.965 754.934 359.66C756.965 363.07 759.199 366.694 761.28 369.682C770.803 383.533 781.432 398.651 791.267 412.929C748.732 421.191 718.776 377.597 707.362 348.937C697.957 325.324 686.705 270.117 730.527 268.097" fill="#69A1AC"/>
<path fill-rule="evenodd" clip-rule="evenodd" d="M980.522 224.247C949.341 226.356 929.324 243.896 920.006 268.429C914.983 281.65 914.408 295.232 911.617 308.819C907.419 329.261 898.385 344.752 880.732 359.315C875.264 363.825 871.234 368.456 868.37 373.411C862.683 378.357 857.734 383.955 854.097 390.799C849.452 399.539 848.137 410.025 853.501 418.739C854.943 421.082 858.54 425.784 862.269 427.921C848.31 453.265 840.635 481.022 841.5 508.743C842.023 525.477 842.981 542.218 844.099 558.932C844.4 563.42 846.114 570.83 848.689 563.304C851.046 556.42 848.09 545.613 847.817 538.421C846.486 503.386 845.349 471.53 862.266 438.797C864.04 435.366 865.921 431.963 867.88 428.587C867.995 428.53 868.102 428.462 868.21 428.395C868.285 428.444 868.352 428.497 868.427 428.545C868.552 428.355 868.724 428.128 868.924 427.875C869.485 427.381 869.976 426.757 870.442 426.06C871.943 424.287 873.641 422.204 873.65 421.064C873.65 421.055 873.645 421.041 873.645 421.033C884.118 406.458 896.113 392.687 908.365 379.186C908.274 379.284 921.656 363.751 919.586 372.341C918.589 376.481 908.746 384.364 904.77 388.749C895.976 398.504 885.649 410.864 877.067 422.816C875.913 423.382 874.281 426.16 873.101 428.228C872.45 429.277 871.842 430.334 871.244 431.254C901.652 439.819 925.306 422.567 941.435 402.501C941.455 402.478 941.472 402.453 941.49 402.429C946.399 396.885 951.427 391.379 957.708 386.996C968.188 379.683 979.411 378.393 991.767 374.793C1025.46 364.978 1039.79 327.75 1044.34 300.126C1049.47 268.962 1024.36 221.174 980.522 224.247" fill="#89C5CC"/>
<path fill-rule="evenodd" clip-rule="evenodd" d="M918.929 136.975C886.927 165.369 871.466 204.752 859.224 241.777C845.551 283.129 836.52 325.119 836.173 368.113C835.946 396.36 835.045 424.783 836.979 452.998C837.665 463.018 838.836 473.056 840.699 482.968C840.853 483.783 845.021 505.916 849.009 500.758C851.277 497.825 844.737 477.798 844.242 474.463C841.462 455.676 840.816 436.75 840.952 417.826C841.175 386.67 840.097 355.673 843.801 324.631C844.353 319.996 844.791 315.128 846.082 310.594C847.453 305.774 845.707 307.878 850.173 305.97C854.512 304.115 859.875 304.38 864.377 302.052C882.237 292.82 891.374 269.105 898.484 253.544C906.618 235.75 911.561 216.775 915.509 198.05C918.407 184.291 920.48 170.617 921.653 156.681C922.023 152.289 922.045 147.696 923.057 143.378C923.33 142.213 924.698 140.152 924.649 139.121C924.544 136.937 922.998 135.653 922.871 133.819C921.532 134.847 920.216 135.899 918.929 136.975" fill="#89C5CC"/>
<path fill-rule="evenodd" clip-rule="evenodd" d="M744.433 515.282C744.433 562.24 789.085 600.306 844.166 600.306C899.248 600.306 943.9 562.24 943.9 515.282" fill="#89C5CC"/>
<path fill-rule="evenodd" clip-rule="evenodd" d="M912.515 440.84C937.198 439.289 964.764 456.265 976.67 473.931C986.269 488.175 984.652 506.879 978.723 522.012C974.753 532.143 966.089 546.587 951.639 546.728C933.562 546.904 932.69 527.857 932.34 516.722C931.876 501.918 929.682 489.022 915.998 478.931C914.309 477.686 912.536 476.52 910.764 475.354C909.19 474.319 907.617 473.284 906.102 472.194C905.86 472.02 905.617 471.845 905.373 471.671C900.534 468.204 895.452 464.563 894.834 458.848C893.937 450.567 899.42 449.076 907.793 450.615C908.063 450.664 908.797 450.901 909.794 451.224C914.07 452.605 923.194 455.554 921.468 452.029C920.818 450.701 918.444 449.649 915.449 448.861C907.696 448.142 898.451 447.308 895.792 447.806C867.107 453.171 855.939 487.044 852.973 508.565C852.653 510.888 852.394 513.219 852.169 515.553H846.899C847.264 509.916 847.747 504.29 848.853 498.716C853.08 477.398 866.299 446.089 895.29 442.629C896.36 442.5 900.294 442.478 905.06 442.716C907.319 441.64 909.849 440.99 912.515 440.84Z" fill="#69A1AC"/>
</g>
<g opacity="0.5">
<path fill-rule="evenodd" clip-rule="evenodd" d="M307.548 112.812C313.289 105.833 323.943 88.1087 332.024 85.6149C337.229 84.0087 335.711 100.624 335.775 103.792C336.026 116.049 334.626 128.228 332.897 140.383C329.783 162.303 319.6 181.824 305.634 200.48C298.447 210.08 290.017 219.796 278.341 225.786C272.967 228.544 266.5 229.006 261.193 231.383C255.012 234.149 258.378 231.913 255.592 237.404C251.724 245.028 250.486 254.863 248.697 262.998C240.478 300.341 220.582 497.747 224.031 535.732C224.337 539.099 218.83 539.904 218.555 535.794C217.094 514.001 229.738 363.081 236.117 313.726C242.496 264.371 248.952 220.768 255.424 203.693C263.277 182.977 277.458 158.065 289.264 138.746C294.747 129.771 300.724 121.105 307.548 112.812Z" fill="#69A1AC"/>
<path fill-rule="evenodd" clip-rule="evenodd" d="M350.162 354.876C365.101 345.526 381.272 363.173 367.753 372.525C360.28 377.694 352.467 375.855 348.068 371.547C345.213 374.515 342.54 377.617 339.972 380.238C332.148 388.223 324.754 396.399 317.686 404.765C303.005 422.146 290.424 440.509 277.269 458.536C264.287 476.328 251.408 494.21 239.641 512.453C229.673 527.909 216.387 546.091 212.974 563.035C218.152 527.1 237.801 492.559 261.199 460.879C284.406 429.46 311.04 395.146 346.974 370.35C343.317 365.766 343.215 359.221 350.162 354.876Z" fill="#C1DEE2"/>
<path fill-rule="evenodd" clip-rule="evenodd" d="M66.6705 267.236C75.0307 268.63 88.6912 284.752 95.5825 290.895C103.772 298.195 111.203 305.976 118.206 314.128C133.284 331.675 146.769 350.332 158.235 369.787C176.929 401.503 191.904 434.061 202.773 468.598C209.426 489.74 213.733 511.652 216.286 533.411C216.768 537.515 221.815 569.153 214.543 570.006C208.003 570.774 210.023 545.982 209.707 542.61C206.14 504.565 195.456 467.547 180.593 431.687C177.356 423.875 174.348 414.307 169.171 407.277C165.442 402.214 169.144 403.98 162.592 402.063C156.966 400.417 150.556 400.819 144.795 398.804C132.28 394.429 122.258 385.934 113.474 377.39C96.4028 360.786 82.8749 342.822 75.8234 321.546C71.9117 309.748 68.317 297.883 66.3222 285.721C65.8062 282.577 61.2857 266.338 66.6705 267.236Z" fill="#69A1AC"/>
<path fill-rule="evenodd" clip-rule="evenodd" d="M99.662 -1.01314C131.153 45.5453 157.031 96.6884 173.741 148.489C183.865 179.874 190.945 212.08 197.98 244.053C208.872 293.56 219.174 343.062 222.105 393.448C225.053 444.126 230.883 502.577 211.418 551.388C221.141 501.832 211.884 449.083 210.245 399.219C209.462 375.415 207.192 351.843 204.214 328.178C201.325 305.222 196.605 282.375 192.209 259.599C190.068 248.506 187.819 237.431 185.529 226.361C184.846 223.059 184.557 213.259 182.1 211.002C179.626 208.731 167.007 207.806 163.045 206.139C155.067 202.783 147.563 198.016 140.921 192.979C128.189 183.322 117.113 170.705 108.371 158.268C88.1439 129.489 80.0571 94.3693 80.4659 61.0402C80.5444 54.5692 92.7518 -15.1132 87.8491 -16.0727C88.1443 -16.3675 88.4235 -16.6718 88.6868 -16.9883C92.3985 -11.6903 96.0408 -6.35639 99.662 -1.01314Z" fill="#89C5CC"/>
<path fill-rule="evenodd" clip-rule="evenodd" d="M439.556 166.904C440.042 166.307 443.204 162.151 441.612 162.417C444.854 161.876 437.152 167 445.231 163.856C441.395 166.944 443.609 170.956 443.66 175.113C443.744 181.862 442.419 188.555 440.928 195.159C438.572 205.597 435.062 215.747 429.968 225.456C418.865 246.615 400.011 266.984 377.628 280.212C366.578 286.743 355.749 288.967 343.147 291.973C335.187 293.873 334.555 297.383 330.33 303.968C321.533 317.684 312.893 331.35 305.135 345.528C295.872 362.458 286.879 379.407 278.397 396.636C249.82 454.668 226.562 514.791 214.347 577.012C214.048 540.345 223.998 502.582 236.548 467.632C245.691 442.169 257.592 417.623 270.287 393.325C273.363 387.439 278.024 379.867 279.331 373.368C280.245 368.815 277.449 364.436 276.169 359.64C271.177 340.961 271.534 320.034 275.918 301.255C280.751 280.548 294.727 270.937 318.371 268.004C327.018 266.931 338.008 267.325 345.937 264.182C354.576 260.759 358.139 249.508 363.051 242.286C376.245 222.887 391.921 204.282 409.921 187.936C414.905 183.409 420.265 179.234 425.951 175.363C429.537 172.921 437.112 169.912 439.556 166.904Z" fill="#89C5CC"/>
<path fill-rule="evenodd" clip-rule="evenodd" d="M167.535 543.264C167.007 540.207 169.36 537.412 172.462 537.412H260.318C263.42 537.412 265.773 540.207 265.244 543.264L258.045 584.88C256.387 594.468 248.068 601.471 238.338 601.471H194.442C184.711 601.471 176.393 594.468 174.734 584.88L167.535 543.264Z" fill="#C1DEE2"/>
</g>
<path fill-rule="evenodd" clip-rule="evenodd" d="M98.783 556.578C98.783 581.371 101.078 601.471 131.883 601.471C162.689 601.471 164.984 581.371 164.984 556.578" fill="#F2F2F2"/>
<path fill-rule="evenodd" clip-rule="evenodd" d="M141.048 541.109C139.919 542.773 138.912 544.471 138.022 546.194C137.991 542.645 138.221 539.07 138.85 535.447C139.924 529.239 141.565 523.064 143.107 516.899C144.216 512.469 144.146 504.511 148.352 500.98C149.505 500.217 149.783 501.714 149.783 502.364C149.797 502.501 149.779 499.712 148.66 500.198C142.006 503.128 139.849 512.34 137.719 516.953C134.611 523.685 131.966 530.568 130.877 537.572C130.602 539.342 130.452 541.111 130.418 542.877C130.191 542.404 129.979 541.928 129.744 541.458C125.903 533.779 120.72 526.286 114.256 519.375C112.665 517.675 92.6574 500.898 91.0912 503.466C91.2458 503.838 91.5693 504.148 92.0627 504.394C92.0916 504.422 92.0924 504.406 92.0755 504.365C93.2506 505.983 96.5914 508.482 97.6321 509.9C100.251 513.468 102.286 517.255 104.355 520.969C108.725 528.818 112.779 536.746 116.709 544.691C117.624 546.542 118.578 548.382 119.551 550.217C109.52 537.883 96.1391 526.686 77.719 520.276C84.0103 523.004 88.1351 528.138 92.3838 532.068C97.5081 536.809 102.905 541.423 108.039 546.159C114.095 551.745 121.22 557.629 127.045 563.811C132.686 573.909 138.169 584.017 141.553 594.632C140.166 590.965 141.445 585.896 141.207 582.047C141.019 578.984 140.599 575.945 140.023 572.912C140.735 574.28 141.348 575.649 141.626 576.923C141.372 574.787 141.08 572.665 140.766 570.554C141.572 568.577 142.363 566.733 142.897 565.214C145.636 557.42 148.897 549.761 153.338 542.295C157.448 535.389 162.162 528.572 167.298 521.962C169.694 518.88 172.123 515.81 174.537 512.734C176.117 510.721 177.621 507.497 179.82 505.568C165.602 516.65 150.068 527.812 141.048 541.109" fill="#F2F2F2"/>
<path fill-rule="evenodd" clip-rule="evenodd" d="M1003.51 35.2223C999.437 23.6321 989.867 14.5606 979.933 6.24883C960.595 -9.93225 950.194 -19.9369 943.301 -43.6069C939.248 -57.5277 935.122 -72.2796 922.266 -82.3793C912.905 -89.7342 896.794 -95.9136 884.275 -90.6469C865.015 -80.8471 859.844 -60.7362 861.786 -42.7281C864.193 -20.4084 876.423 -6.64606 899.917 1.57484C913.155 6.20489 921.955 12.3141 929.142 22.9595C934.89 31.4718 938.241 42.131 945.465 49.8477C956.264 61.3831 969.778 66.5111 986.435 64.595C970.833 40.1228 952.604 15.4207 930.617 -5.18373C928.559 -7.25524 916.42 -15.1839 918.868 -18.7142C921.565 -22.6014 934.027 -7.99959 933.939 -8.08782C940.329 -1.83507 946.241 4.80943 952.047 11.5177C952.033 11.5242 952.015 11.5278 951.999 11.5347C957.977 18.4183 963.907 25.4033 969.725 32.4759C972.077 35.4675 974.367 38.4974 976.559 41.6033C979.776 46.1608 984.881 59.0958 990.145 61.8982C991.271 62.4974 992.313 62.8323 993.286 62.9704C996.878 67.9837 1000.37 73.0372 1003.7 78.1504C1012.38 91.5049 1019.83 105.605 1023.24 120.683C1024.24 125.083 1023.54 141.545 1027.06 144.721C1033.5 150.532 1031.62 139.342 1031.23 135.965C1028.03 107.996 1016.25 84.1683 999.151 60.6552C1004.4 54.8059 1005.16 39.9184 1003.51 35.2223" fill="#F2F2F2"/>
<path fill-rule="evenodd" clip-rule="evenodd" d="M782.865 48.7361C789.656 41.9141 805.983 40.7566 815.968 41.2133C828.324 41.7782 841.015 44.3424 852.77 47.4429C872.134 52.5498 890.95 61.8693 908.004 70.8897C910.06 71.9766 935.38 84.9577 933.139 87.2358C930.918 89.4929 906.062 74.0733 900.522 71.4156C888.701 65.7429 877.86 59.0341 864.829 55.288C851.337 51.4084 837.068 49.8722 822.88 49.9782C821.059 49.992 815.12 48.9097 814.992 51.2062C814.866 53.4523 824.694 52.2804 826.427 52.2939C833.585 52.3499 840.787 52.9243 847.843 53.9817C861.063 55.9627 873.492 59.9537 884.815 66.0751C881.655 72.3375 874.082 75.2251 866.137 73.658C859.27 72.3028 852.576 68.9618 845.852 67.9956C841.221 67.3305 836.585 67.7262 832.094 68.8385C820.249 71.7731 813.418 77.7851 800.394 73.6032C790.185 70.3249 773.111 58.5468 782.865 48.7361" fill="#F2F2F2"/>
<path fill-rule="evenodd" clip-rule="evenodd" d="M753.658 -61.1874C738.577 -62.125 721.736 -51.8646 714.462 -41.1871C708.598 -32.5782 709.586 -21.2736 713.208 -12.1275C715.633 -6.0043 720.927 2.72594 729.755 2.81102C740.799 2.91752 741.332 -8.5947 741.545 -15.3247C741.829 -24.2721 743.17 -32.0665 751.529 -38.1653C752.562 -38.918 753.645 -39.6227 754.728 -40.3273C755.689 -40.9528 756.65 -41.5783 757.575 -42.2371C757.723 -42.3424 757.872 -42.4478 758.021 -42.5534C760.977 -44.6488 764.082 -46.8496 764.46 -50.3034C765.008 -55.3087 761.658 -56.2095 756.543 -55.2796C756.378 -55.2496 755.929 -55.1063 755.32 -54.9114C752.708 -54.0764 747.133 -52.2945 748.188 -54.4246C748.585 -55.2272 750.035 -55.8632 751.865 -56.3397C756.602 -56.7741 762.25 -57.278 763.874 -56.9769C781.399 -53.7345 788.222 -33.2618 790.034 -20.2545C790.24 -18.7816 790.404 -17.3037 790.546 -15.8235H793.759C793.534 -19.2997 793.241 -22.7702 792.552 -26.2075C789.969 -39.0917 781.893 -58.0151 764.181 -60.1064C763.527 -60.1843 761.124 -60.1974 758.212 -60.0534C756.832 -60.7037 755.286 -61.0969 753.658 -61.1874Z" fill="#F2F2F2"/>
<path fill-rule="evenodd" clip-rule="evenodd" d="M64.7724 77.8427C62.4686 82.8312 59.41 86.5537 57.299 87.3001C52.0056 89.1719 40.4148 72.8813 39.495 63.9974C38.5753 55.1134 54.5777 40.1769 64.2111 52.5103C67.5546 56.7909 68.3822 62.0653 67.8163 67.2064L88.4968 87.1438L74.0574 96.8833L64.7724 77.8427Z" fill="#B28B67"/>
<path fill-rule="evenodd" clip-rule="evenodd" d="M70.891 69.3715C67.2366 60.0443 68.6729 51.0371 65.441 47.9464C62.2091 44.8558 58.1989 46.2761 58.1989 46.2761C58.1989 46.2761 51.5887 40.2855 42.6864 47.8504C33.7842 55.4154 30.6196 63.3964 39.1208 70.5272C41.453 68.9541 43.6965 66.2072 48.5695 65.0339C50.8888 64.4754 54.1124 67.5341 54.1124 67.5341L55.8717 66.3474C55.8717 66.3474 55.554 60.3516 58.8066 59.8037C62.0592 59.2558 63.6455 64.5362 63.6455 64.5362L69.0194 70.6339L70.891 69.3715Z" fill="#191847"/>
<path fill-rule="evenodd" clip-rule="evenodd" d="M135.334 121.507L110.075 223.746L93.6668 308.668L85.3206 311.219L101.478 131.858L135.334 121.507Z" fill="#997659"/>
<path fill-rule="evenodd" clip-rule="evenodd" d="M95.1189 303.929C96.0207 303.182 97.3794 303.263 98.0704 304.208C98.956 305.42 100.015 307.003 100.332 308.041C100.907 309.924 101.384 313.726 101.384 313.726C99.2017 314.393 62.1528 325.72 62.1528 325.72C62.1528 325.72 59.0774 321.131 62.2489 319.72C65.4204 318.309 67.5003 317.318 67.5003 317.318L83.0369 303.796C83.4619 303.426 84.1085 303.48 84.4662 303.916L86.3298 306.185C86.3298 306.185 89.8151 306.676 91.722 306.093C92.7295 305.785 94.0743 304.795 95.1189 303.929Z" fill="#E4E4E4"/>
<path fill-rule="evenodd" clip-rule="evenodd" d="M100.851 293.676L83.2662 293.726C83.2662 293.726 84.1731 258.86 87.9104 216.179C91.6478 173.497 98.4684 132.778 98.4684 132.778L143.928 118.88C143.928 118.88 138 169.562 127.218 212.797C116.436 256.032 100.851 293.676 100.851 293.676Z" fill="#DB2721"/>
<path fill-rule="evenodd" clip-rule="evenodd" d="M138.731 120.469C152.895 149.352 174.168 185.282 175.422 186.208C176.258 186.826 199.752 187.454 245.904 188.092L246.352 196.006C194.022 204.095 165.898 206.557 161.98 203.391C156.103 198.642 121.439 157.53 104.729 130.864L138.731 120.469Z" fill="#B28B67"/>
<path fill-rule="evenodd" clip-rule="evenodd" d="M229.185 186.245L229.634 199.073C193.154 213.823 169.459 218.468 158.55 213.011C147.64 207.553 128.819 180.44 102.086 131.672L145.435 118.419C165.322 158.966 175.944 180.011 177.3 181.553C178.657 183.096 195.952 184.66 229.185 186.245Z" fill="#FF4133"/>
<path fill-rule="evenodd" clip-rule="evenodd" d="M242.646 188.268C242.067 187.25 242.382 185.926 243.432 185.41C244.779 184.748 246.522 183.981 247.599 183.849C249.552 183.609 253.378 183.8 253.378 183.8C253.657 186.066 258.382 224.531 258.382 224.531C258.382 224.531 253.33 226.762 252.491 223.393C251.652 220.024 251.037 217.803 251.037 217.803L240.419 200.147C240.129 199.664 240.294 199.037 240.785 198.76L243.342 197.319C243.342 197.319 244.43 193.971 244.187 191.991C244.059 190.945 243.317 189.447 242.646 188.268Z" fill="#E4E4E4"/>
<path fill-rule="evenodd" clip-rule="evenodd" d="M38.7895 157.531L63.7972 142.949L67.6404 156.227L43.6287 163.297C36.3318 170.252 32.3628 173.051 31.7217 171.695C31.1812 170.551 31.7921 169.601 32.3547 168.726C32.793 168.044 33.2021 167.408 33.0148 166.761C32.5872 165.283 28.1958 164.959 24.0163 164.83C19.8368 164.701 21.2339 162.985 22.3269 162.181C26.8189 160.103 32.3064 158.553 38.7895 157.531ZM192.058 127.045C187.725 124.958 138.882 92.698 138.882 92.698L126.383 102.539C126.383 102.539 183.192 132.751 185.782 134.246C189.147 136.188 190.42 141.835 191.283 145.663C191.417 146.255 191.54 146.804 191.661 147.289C194.134 146.676 194.241 144.998 194.354 143.228C194.482 141.23 194.617 139.116 198.177 138.288C199.553 137.968 200.941 137.776 202.297 137.589C206.981 136.941 211.285 136.346 213.374 130.718C213.705 129.826 213.248 127.798 210.653 127.962C204.188 128.369 194.175 128.065 192.058 127.045Z" fill="#997659"/>
<path fill-rule="evenodd" clip-rule="evenodd" d="M73.535 79.8333L64.2299 88.1544C78.8701 111.875 76.4776 135.953 43.3507 154.316L61.4004 185.491C91.7307 167.519 107.291 137.628 88.9478 103.942C84.1994 95.222 78.9358 86.3985 73.535 79.8333Z" fill="#AFB9C5"/>
<path fill-rule="evenodd" clip-rule="evenodd" d="M185.914 122.726C150.819 91.8524 114.556 75.0857 77.1263 72.4256L76.1844 73.1615L76.1524 73.1865L76.1517 73.2017L63.9371 88.2204C77.8701 106.054 84.3066 122.484 90.4947 138.28C93.167 145.101 95.793 151.804 98.9564 158.451L139.119 127.073C144.753 133.118 150.31 139.514 155.841 146.221L185.914 122.726Z" fill="#C5CFD6"/>
<path fill-rule="evenodd" clip-rule="evenodd" d="M139.119 127.073C127.649 114.765 115.857 103.913 103.307 94.8581C113.838 106.8 126.183 122.175 130.956 133.45L139.119 127.073Z" fill="black" fill-opacity="0.1"/>
<path fill-rule="evenodd" clip-rule="evenodd" d="M1030.44 125.558C1036.15 136.812 1043.49 145.11 1048.4 146.663C1060.71 150.555 1085.92 112.381 1087.27 91.9656C1088.62 71.5497 1050.61 38.5319 1029.56 67.497C1022.25 77.5498 1020.8 89.6918 1022.54 101.424L976.779 148.628L1010.76 169.859L1030.44 125.558Z" fill="#B28B67"/>
<path fill-rule="evenodd" clip-rule="evenodd" d="M1021.04 48.1566C1020.63 46.3835 1021 44.4573 1021.4 42.66C1021.82 40.793 1022.26 38.9198 1022.9 37.1032C1024.18 33.4735 1026.46 29.8077 1030.27 28.7549C1033.34 27.9107 1036.62 28.7297 1039.27 30.1129C1041.03 31.0343 1042.61 32.3483 1043.89 33.8848C1045.16 35.4091 1045.88 37.3172 1047.03 38.9355C1049.23 35.5414 1052.06 32.3186 1055.63 30.4768C1059.07 28.7048 1062.73 28.7919 1066.03 30.2741C1069.42 31.7955 1072.05 34.4524 1073.9 37.7101C1074.36 38.5258 1074.81 39.3555 1075.19 40.2188C1075.51 40.9417 1075.81 41.7552 1076.36 42.3153C1076.98 42.9399 1077.61 42.7453 1078.41 42.5104C1079.35 42.2349 1080.32 42.0773 1081.28 42.0045C1085.54 41.6832 1089.92 43.1942 1092.5 46.5932C1093.69 48.1592 1094.57 50.112 1094.76 52.159C1094.93 53.9836 1094.38 56.364 1095.14 58.0377C1095.47 58.748 1096.16 58.5073 1096.88 58.4634C1097.98 58.3972 1099.07 58.2536 1100.16 58.2077C1101.69 58.1432 1103.19 58.3193 1104.62 58.8089C1106.7 59.5256 1109.16 61.197 1108.19 63.9073C1107.82 64.9253 1107.07 65.7898 1106.45 66.6529C1105.59 67.8381 1104.72 69.0206 1103.84 70.1909C1103.17 71.0794 1102.5 71.9224 1101.75 72.7343C1101.35 73.1671 1100.48 73.8991 1100.38 74.5234C1100.26 75.3038 1101.69 75.7141 1102.2 76.0603C1103.2 76.7442 1104.12 77.5685 1104.79 78.6003C1105.32 79.4 1105.78 80.3834 1105.56 81.4206C1105.43 82.0578 1105.05 82.5584 1104.62 83.0349C1104.12 83.6068 1104.03 84.0232 1103.71 84.719C1105.51 84.9017 1111.23 86.3791 1110.29 89.2257C1109.97 90.1735 1108.94 90.8183 1108.15 91.2948C1106.78 92.1307 1105.29 92.7433 1103.81 93.2932C1100.72 94.4406 1097.49 95.0772 1094.28 95.3408C1096.14 98.0852 1094.7 101.869 1091.23 102.485C1089.69 102.757 1088.25 102.13 1087.05 101.3C1086.61 100.996 1086.07 100.414 1085.66 100.27C1085.44 100.193 1085.13 100.227 1084.86 100.079C1083.04 99.1075 1081.33 97.4549 1079.86 96.0005C1077.25 93.4091 1075.27 90.1684 1074.29 86.504C1074.04 85.564 1073.74 84.9284 1072.93 84.4293C1072.21 83.9918 1071.39 83.7506 1070.67 83.3244C1068.76 82.197 1067.64 80.2177 1066.27 78.5142C1064.69 80.8068 1062.39 82.9855 1060.1 84.505C1058.23 85.7441 1056.43 84.9685 1054.72 84.111C1049.25 81.3693 1044.41 77.588 1039.23 74.3634C1043.53 78.6233 1048.41 82.3224 1052.54 86.7545C1054.41 88.7578 1051.75 89.1991 1050.14 89.6476C1047.48 90.3863 1044.97 91.7905 1042.75 93.5339C1042.3 88.8115 1039.28 84.0032 1034.83 82.5874C1029.92 81.0228 1023.35 84.8881 1023.49 90.7006C1023.57 94.0749 1025.83 96.7733 1027.56 99.2778C1024.51 100.043 1022.3 102.595 1019.7 104.287C1018.42 105.121 1016.82 105.97 1015.34 105.615C1014.79 105.484 1014.25 105.165 1013.66 105.311C1012.93 105.491 1012.51 105.936 1011.7 105.976C1008.46 106.135 1005.01 103.812 1004.29 100.517C1003.64 97.5364 1005.94 94.9019 1008.62 93.9693C1006.85 91.4656 1003.27 87.4408 1006.57 84.2935C1001.58 80.6932 994.207 64.3453 1005.05 62.5417C1002.57 57.9766 1002.36 50.4761 1007.74 47.3456C1011.89 44.935 1017.3 46.0849 1021.04 48.1566" fill="#191847"/>
<path fill-rule="evenodd" clip-rule="evenodd" d="M841.628 439.271C841.628 439.271 901.705 456.065 945.294 456.065C988.882 456.065 1026.27 430.202 1026.27 430.202C1026.27 430.202 967.477 412.963 929.434 412.963C891.39 412.963 841.628 439.271 841.628 439.271Z" fill="#1F28CF"/>
<path fill-rule="evenodd" clip-rule="evenodd" d="M979.966 472.204C979.58 471.624 979.254 470.992 978.995 470.309C973.641 456.158 887.89 303.503 879.347 275.593H975.891C982.386 296.813 1011.62 429.979 1015.74 456.547C1028.72 498.456 1055.44 634.184 1058.86 643.587C1062.45 653.478 1042.25 663.783 1036.87 651.622C1028.3 632.273 1007.9 578.734 998.816 546.043C990.299 515.395 983.363 487.823 979.966 472.204Z" fill="#997659"/>
<path fill-rule="evenodd" clip-rule="evenodd" d="M900.98 490.842C861.775 500.745 718.375 518.649 708.534 521.457C698.411 524.346 689.535 503.491 702.048 498.973C721.958 491.785 776.818 475.177 810.08 468.399C836.834 462.947 861.247 458.499 877.638 455.894C876.249 409.877 869.902 299.444 874.062 275.593H959.486C955.496 298.465 921.771 465.351 915.502 482.056C913.513 488.02 907.577 490.655 900.98 490.842V490.842Z" fill="#B28B67"/>
<path fill-rule="evenodd" clip-rule="evenodd" d="M705.958 496.241C706.258 495.109 705.566 493.94 704.415 493.722C701.072 493.09 694.65 492.041 691.448 492.605C687 493.389 678.729 496.374 678.729 496.374C679.639 501.53 695.081 589.06 695.081 589.06C695.081 589.06 707.669 590.567 707.248 582.615C706.828 574.663 706.687 569.379 706.687 569.379L718.469 522.246C718.606 521.699 718.264 521.148 717.714 521.027L709.832 519.294C709.832 519.294 705.197 512.681 704.402 508.176C703.84 504.992 705.144 499.304 705.958 496.241Z" fill="#E4E4E4"/>
<path fill-rule="evenodd" clip-rule="evenodd" d="M874.338 275.593C874.338 275.593 930.803 259.447 981.19 275.593C992.877 328.887 1021.27 350.039 1026.27 431.746C969.503 459.937 899.382 411.641 840.947 439.132C824.252 400.679 847.625 308.073 874.338 275.593Z" fill="#2B44FF"/>
<path fill-rule="evenodd" clip-rule="evenodd" d="M1089.38 370.94L1061.81 311.012L1037.44 330.727L1072.91 375.351C1077.45 397.87 1081.2 408.285 1084.15 406.596C1086.64 405.172 1086.73 402.601 1086.82 400.233C1086.89 398.388 1086.96 396.667 1088.14 395.706C1090.85 393.512 1099.44 398.659 1107.37 403.892C1115.31 409.125 1114.94 404.097 1113.95 401.167C1108.3 391.411 1100.11 381.335 1089.38 370.94ZM805.565 333.685C813.676 326.184 863.82 241.97 863.82 241.97L896.29 254.581C896.29 254.581 828.846 340.255 824.162 345.283C818.077 351.815 819.063 365.078 819.732 374.071C819.836 375.462 819.932 376.751 819.992 377.897C814.153 378.214 812.793 374.6 811.36 370.789C809.742 366.484 808.029 361.93 799.66 362.508C796.427 362.731 793.252 363.244 790.149 363.745C779.434 365.475 769.589 367.064 761.234 356.105C759.91 354.368 759.556 349.605 765.361 348.217C779.825 344.761 801.599 337.353 805.565 333.685Z" fill="#B28B67"/>
<path fill-rule="evenodd" clip-rule="evenodd" d="M1008.62 140.979L1022.96 143.836C1023.91 210.607 1044.17 278.722 1083.74 348.182L1019.77 384.438C987.905 294.931 979 211.787 1008.62 140.979Z" fill="#191847"/>
<path fill-rule="evenodd" clip-rule="evenodd" d="M885.042 287.578L1004.86 333.573C1004.86 333.573 1002.09 216.335 1029.26 145.561L995.182 126.301C949.238 161.087 919.622 214.26 885.042 287.578Z" fill="#DDE3E9"/>
<path fill-rule="evenodd" clip-rule="evenodd" d="M810.864 318.028C880.723 175.207 994.388 125.996 994.388 125.996L994.407 126.033C994.415 126.026 994.423 126.02 994.431 126.013L996.79 126.919C1000.97 128.69 1009.49 132.396 1009.49 132.396L1008.64 160.71C992.503 206.892 954.196 350.917 954.196 350.917L875.766 320.811C873.465 327.206 871.291 333.751 869.266 340.446L810.864 318.028Z" fill="#2F3676"/>
<path fill-rule="evenodd" clip-rule="evenodd" d="M875.544 321.429C885.522 293.566 897.929 268.57 911.026 246.667C902.473 275.339 894.076 310.569 897.395 329.817L875.544 321.429Z" fill="black" fill-opacity="0.1"/>
<path fill-rule="evenodd" clip-rule="evenodd" d="M911.418 279.847L957.06 276.707L950.148 294.714L911.418 279.847Z" fill="white" fill-opacity="0.2"/>
<path fill-rule="evenodd" clip-rule="evenodd" d="M251.958 406.943C256.448 408.659 260.646 409.13 262.434 408.32C266.919 406.289 264.341 389.143 259.52 383.054C254.699 376.965 235.498 377.326 236.908 390.826C237.397 395.511 240.081 399.296 243.565 402.157L242.614 427.064L257.666 424.41L251.958 406.943Z" fill="#B28B67"/>
<path fill-rule="evenodd" clip-rule="evenodd" d="M249.573 376.81C247.532 376.837 242.152 377.557 241.167 377.73C240.537 377.841 239.88 378.105 239.406 377.596C239.018 377.18 238.989 376.365 238.802 375.835C238.584 375.22 238.324 374.621 238.062 374.023C237.316 372.324 236.364 370.749 235.169 369.324C232.927 366.651 230 364.763 226.584 363.966C222.813 363.087 218.783 363.444 215.064 364.413C211.084 365.45 207.663 367.418 204.071 369.336C200.648 371.164 196.925 372.302 193.024 372.393C189.093 372.483 185.837 370.932 182.264 369.545C178.605 368.126 174.597 367.482 170.742 368.472C167.145 369.396 164.047 371.485 161.383 374.016C158.891 376.383 156.959 379.044 156.203 382.442C155.389 386.097 156.05 389.836 158.906 392.436C163.046 396.205 169.503 396.23 174.69 395.2C177.689 394.605 180.551 393.537 183.219 392.042C186.777 390.049 189.657 387.225 192.883 384.778C194.397 383.63 195.994 382.624 197.708 381.8C199.372 381.001 201.056 380.471 202.826 381.242C204.698 382.058 206.393 382.884 208.433 383.242C210.391 383.585 212.405 383.614 214.362 383.254C218.171 382.552 221.722 380.709 225.287 379.265C228.193 378.088 231.312 376.875 234.5 376.952C235.831 376.984 237.802 377.187 238.5 378.432C230.937 381.216 229.561 391.353 233.006 398.01C234.865 401.603 242.792 404.788 245.218 402.299C246.754 400.723 245.393 399.248 244.508 398.273C242.813 396.405 241.884 393.785 244.076 391.889C245.967 390.254 248.717 392.86 248.759 392.849C249.332 392.701 253.854 388.996 256.586 384.272C260.033 383.871 260.156 381.545 259.02 379.861C257.883 378.177 252.393 376.774 249.573 376.81Z" fill="#191847"/>
<path fill-rule="evenodd" clip-rule="evenodd" d="M240.163 478.52C244.005 493.708 324.702 526.188 325.35 527.384C325.782 528.182 312.165 584.946 312.165 584.946L318.955 586.293C318.955 586.293 344.256 524.257 341.402 518.625C337.315 510.562 275.106 472.527 275.106 472.527L240.163 478.52Z" fill="#B28B67"/>
<path fill-rule="evenodd" clip-rule="evenodd" d="M312.438 576.713L323.48 578.657C341.013 550.138 346.002 528.278 342.61 518.186C339.218 508.094 276.525 472.147 276.525 472.147L239.426 478.689C246.975 514.099 319.026 528.639 320.195 529.999C321.364 531.358 315.116 547.795 312.438 576.713Z" fill="#2F3676"/>
<path fill-rule="evenodd" clip-rule="evenodd" d="M312.136 584.183C311.143 583.563 309.805 583.807 309.242 584.833C308.635 585.938 307.975 587.285 307.821 588.153C307.522 589.845 307.513 593.189 307.513 593.189C309.477 593.534 342.815 599.4 342.815 599.4C342.815 599.4 344.994 595.098 342.093 594.214C339.193 593.33 337.283 592.693 337.283 592.693L322.477 582.707C322.01 582.393 321.375 582.525 321.073 583.001L319.768 585.055C319.768 585.055 316.797 585.851 315.081 585.549C314.243 585.402 313.093 584.78 312.136 584.183Z" fill="#E4E4E4"/>
<path fill-rule="evenodd" clip-rule="evenodd" d="M248.523 477.046L229.829 560.428L209.573 631.706L217.084 630.382L273.983 472.556L248.523 477.046Z" fill="#997659"/>
<path fill-rule="evenodd" clip-rule="evenodd" d="M210.043 617.558L227.283 617.742C236.845 596.517 277.148 509.294 276.691 472.079L239.537 478.63C224.375 508.265 218.946 596.126 210.043 617.558Z" fill="#5C63AB"/>
<path fill-rule="evenodd" clip-rule="evenodd" d="M321.667 437.714L300.775 451.666L309.642 459.668L324.308 443.655C332.506 440.603 336.199 438.572 335.388 437.561C334.704 436.709 333.731 436.825 332.835 436.933C332.137 437.016 331.486 437.095 331.054 436.705C330.067 435.814 331.491 432.276 332.986 428.975C334.48 425.675 332.611 426.114 331.569 426.661C328.237 429.371 324.936 433.056 321.667 437.714ZM222.951 470.841L209.694 470.555C205.05 495.011 202.087 508.486 200.804 510.981C199.863 512.811 193.039 518.299 188.316 521.421C186.42 522.674 187.167 524.333 187.867 524.783C192.283 527.618 195.598 525.767 199.205 523.752C200.25 523.169 201.319 522.571 202.446 522.07C205.365 520.773 206.57 522.181 207.71 523.511C208.719 524.689 209.676 525.806 211.724 524.932C211.553 524.53 211.35 524.081 211.132 523.596C209.721 520.463 207.641 515.843 208.967 512.712C209.647 511.105 214.309 497.148 222.951 470.841Z" fill="#B28B67"/>
<path fill-rule="evenodd" clip-rule="evenodd" d="M248.854 414.176L254.095 412.294C267.884 421.653 277.531 448.276 286.018 450.529C294.042 452.659 303.97 447.478 315.676 440.782L321.014 448.67C311.827 462.974 289.466 477.633 278.614 473.429C261.263 466.708 251.669 433.465 248.854 414.176Z" fill="#DB2721"/>
<path fill-rule="evenodd" clip-rule="evenodd" d="M237.285 486.339C237.285 486.339 269.792 480.607 285.108 477.907C287.293 477.522 286.324 474.435 285.727 472.896C278.837 455.139 261.108 437.814 256.489 411.622L242.313 411.888C234.143 432.274 234.186 455.591 237.285 486.339Z" fill="#DDE3E9"/>
<path fill-rule="evenodd" clip-rule="evenodd" d="M241.581 412.017L241.423 412.045C213.849 436.592 200.368 469.483 200.981 510.718L211.352 510.916C216.626 502 222.586 487.878 229.23 468.551C228.109 479.685 227.844 490.949 228.976 501.356L272.025 493.765C276.64 471.208 246.885 411.082 246.885 411.082L243.913 411.606L241.581 412.017Z" fill="#FF4133"/>
<path fill-rule="evenodd" clip-rule="evenodd" d="M494.548 114.885C491.518 111.154 488.118 108.647 486.164 108.454C481.265 107.971 474.924 124.109 476.055 131.793C477.185 139.476 493.994 148.764 499.524 136.368C501.443 132.066 501.011 127.446 499.423 123.227L512.701 102.132L498.338 96.9041L494.548 114.885Z" fill="#B28B67"/>
<path fill-rule="evenodd" clip-rule="evenodd" d="M475.748 128.416C475.588 129.3 475.599 130.351 475.593 131.241C475.585 132.388 475.799 133.502 476.088 134.584C476.631 136.621 477.457 138.583 478.516 140.346C480.451 143.568 483.477 146.122 487.063 146.956C488.873 147.377 490.796 147.332 492.627 146.76C494.281 146.243 496.056 145.241 497.77 145.747C499.635 146.297 500.725 148.505 501.828 150.025C503.072 151.739 504.531 153.189 506.344 154.206C509.381 155.909 512.809 155.93 515.993 154.108C519.38 152.169 522.597 148.688 522.392 144.411C522.354 143.616 522.194 142.899 521.836 142.223C521.507 141.602 520.931 140.86 520.989 140.082C521.052 139.254 522.034 138.515 522.525 137.926C523.228 137.083 523.886 136.169 524.167 135.077C524.63 133.284 524.136 131.231 523.394 129.671C522.638 128.084 521.43 126.892 519.994 126.022C519.035 125.442 518.019 124.944 516.941 124.639C516.405 124.487 515.893 124.463 515.346 124.394C514.814 124.326 514.587 124.097 514.267 123.677C512.783 121.729 510.876 120.49 508.573 119.861C506.629 119.33 504.288 118.993 502.281 119.717C500.052 120.521 499.37 122.501 499.007 124.749C498.657 124.384 497.525 123.825 497.926 124.918C498.084 125.351 498.563 125.678 498.85 126.003C499.184 126.382 499.501 126.829 499.69 127.317C500.454 129.287 498.026 131.848 496.2 131.751C493.487 131.607 494.189 127.977 492.769 126.455C491.953 125.58 490.65 125.896 489.64 126.334C488.287 126.922 487.142 127.937 486.082 129.007C485.209 129.889 484.364 130.798 483.483 131.671C483.072 132.078 481.763 133.177 481.964 133.881C480.088 133.59 478.403 132.159 477.241 130.664C476.761 130.046 476.444 129.442 476.363 128.63C476.346 128.456 476.351 127.959 476.163 127.871C475.813 127.705 475.789 128.194 475.748 128.416" fill="#191847"/>
<path fill-rule="evenodd" clip-rule="evenodd" d="M529.698 53.9771L528.607 -32.3783L528.841 -95.6493L517.363 -99.8267L497.044 42.0917L529.698 53.9771Z" fill="#1F28CF"/>
<path fill-rule="evenodd" clip-rule="evenodd" d="M536.796 56.5603C546.588 30.63 559.124 -4.516 560.442 -5.87472C561.761 -7.23344 619.152 -26.4009 619.152 -26.4009L616.894 -38.6024C616.894 -38.6024 551.649 -23.7938 547.296 -20.2413C542.943 -16.6889 514.175 20.1106 498.044 42.4556L536.796 56.5603Z" fill="#2B44FF"/>
<path fill-rule="evenodd" clip-rule="evenodd" d="M587.493 50.9825C583.993 53.3242 557.424 82.5255 557.424 82.5255L547.612 76.799C547.612 76.799 579.127 47.1243 581.19 45.51C583.869 43.4129 584.29 38.3613 584.575 34.9359C584.62 34.406 584.66 33.915 584.706 33.4799C586.922 33.7078 587.217 35.1495 587.528 36.6694C587.88 38.3861 588.252 40.2027 591.435 40.4828C592.665 40.591 593.89 40.5869 595.087 40.5829C599.221 40.569 603.019 40.5562 605.507 45.1789C605.902 45.9117 605.75 47.7259 603.484 47.9029C597.837 48.3439 589.203 49.8377 587.493 50.9825ZM459.522 24.4545L473.456 45.3636L481.451 36.4861L465.458 21.8094C462.411 13.6046 460.382 9.90838 459.372 10.7206C458.521 11.4055 458.637 12.3789 458.744 13.2756C458.827 13.9741 458.905 14.626 458.516 15.0586C457.626 16.0464 454.091 14.622 450.794 13.1268C447.498 11.6315 447.936 13.5019 448.482 14.5455C451.189 17.8799 454.869 21.1829 459.522 24.4545Z" fill="#B28B67"/>
<path fill-rule="evenodd" clip-rule="evenodd" d="M489.764 107.495L497.096 107.197C497.636 105.505 498.506 103.134 499.503 100.418C502.633 91.8937 507.011 79.9678 506.352 74.9296C504.067 57.4751 491.188 44.1287 476.843 29.2638C474.921 27.2714 472.972 25.2516 471.018 23.191L462.648 31.2545C463.06 31.8514 463.467 32.4488 463.868 33.0466C463.018 33.0367 462.172 33.4053 461.599 34.1221C460.614 35.3563 460.814 37.1554 462.047 38.1405C464.551 40.1426 467.065 41.5177 469.577 42.2326C481.963 63.8201 487.571 85.8554 489.764 107.495Z" fill="#69A1AC"/>
<path fill-rule="evenodd" clip-rule="evenodd" d="M542.864 51.1667C542.864 51.1667 515.865 37.8363 498.589 35.0518C497.162 34.8218 495.125 40.6008 495.171 42.3984C495.892 70.392 495.704 90.6243 489.514 107.633C492.67 107.211 498.945 110.595 498.945 110.595C517.202 97.3899 529.981 79.266 542.864 51.1667Z" fill="#191847"/>
<path fill-rule="evenodd" clip-rule="evenodd" d="M578.642 63.8533C544.805 105.252 503.21 113.769 503.21 113.769L499.988 112.597L496.427 111.3C500.898 101.407 502.676 85.2886 504.739 66.5907C508.039 36.6873 512.066 0.185485 529.001 -28.0058C536.836 -26.9888 544.947 -22.7838 553.728 -18.2316C566.402 -11.6617 580.47 -4.36846 597.118 -4.8916C592.135 7.05685 580.152 17.9299 568.224 28.754C560.663 35.615 553.123 42.4562 547.402 49.5392C547.821 50.3703 547.826 51.3894 547.326 52.2555L546.37 53.9127C545.725 55.0304 544.439 55.5469 543.245 55.266C542.718 56.089 542.222 56.916 541.758 57.7475C539.387 61.9964 538.228 66.6264 537.082 71.2043L537.082 71.2044C536.453 73.7179 535.828 76.2156 535.009 78.626C545.59 74.4082 559.781 65.5047 575.777 46.9412L585.833 54.3599C584.819 55.8054 583.794 57.217 582.76 58.5956C583.802 59.7898 584.095 63.7657 582.79 63.9357C581.411 64.1153 580.027 64.086 578.642 63.8533Z" fill="#89C5CC"/>
<path fill-rule="evenodd" clip-rule="evenodd" d="M500.964 112.275L507.489 103.921L503.878 94.5631L511.51 91.0198L506.416 62.862L514.546 92.0725L506.997 95.6984L510.213 103.977L500.964 112.275Z" fill="black" fill-opacity="0.1"/>
<path fill-rule="evenodd" clip-rule="evenodd" d="M513.649 55.3505C512.332 54.871 510.874 55.5517 510.394 56.8709C509.914 58.1902 510.593 59.6484 511.91 60.1279C513.228 60.6075 514.685 59.9268 515.166 58.6075C515.646 57.2883 514.967 55.8301 513.649 55.3505ZM515.666 40.5301C514.349 40.0506 512.892 40.7313 512.411 42.0505C511.931 43.3698 512.61 44.828 513.928 45.3075C515.245 45.7871 516.702 45.1064 517.183 43.7871C517.663 42.4679 516.984 41.0097 515.666 40.5301ZM516.814 28.0984C517.294 26.7792 518.752 26.0985 520.069 26.578C521.387 27.0576 522.066 28.5158 521.585 29.835C521.105 31.1543 519.648 31.835 518.33 31.3554C517.013 30.8759 516.334 29.4177 516.814 28.0984Z" fill="black" fill-opacity="0.4"/>
</g>
<defs>
<clipPath id="clip0">
<rect width="1140" height="600" fill="white"/>
</clipPath>
</defs>
</svg>
