<svg width="72" height="" viewBox="0 0 142 20" fill="none" xmlns="http://www.w3.org/2000/svg">
    <path d="M0.392 0.399999H4.448L5.768 5.488L6.2 7.504H6.272L6.704 5.488L7.952 0.399999H12.008V16H8.696V12.328C8.696 11.864 8.712 11.28 8.744 10.576C8.792 9.856 8.84 9.12 8.888 8.368C8.936 7.6 8.992 6.864 9.056 6.16C9.12 5.456 9.176 4.872 9.224 4.408H9.152L7.856 9.04L7.04 11.848H5.264L4.448 9.04L3.224 4.408H3.128C3.176 4.872 3.232 5.456 3.296 6.16C3.36 6.864 3.416 7.6 3.464 8.368C3.512 9.12 3.552 9.856 3.584 10.576C3.632 11.28 3.656 11.864 3.656 12.328V16H0.392V0.399999ZM15.4546 0.399999H26.0146V3.856H19.5826V6.304H25.0546V9.76H19.5826V12.544H26.2546V16H15.4546V0.399999ZM29.1733 0.399999H33.5653C34.6853 0.399999 35.7093 0.543999 36.6373 0.831999C37.5653 1.12 38.3653 1.576 39.0373 2.2C39.7093 2.824 40.2293 3.624 40.5973 4.6C40.9813 5.576 41.1733 6.752 41.1733 8.128C41.1733 9.504 40.9893 10.688 40.6213 11.68C40.2533 12.672 39.7333 13.488 39.0613 14.128C38.4053 14.768 37.6293 15.24 36.7333 15.544C35.8373 15.848 34.8613 16 33.8053 16H29.1733V0.399999ZM33.3493 12.688C33.8453 12.688 34.3093 12.624 34.7413 12.496C35.1893 12.352 35.5733 12.112 35.8933 11.776C36.2133 11.44 36.4693 10.976 36.6613 10.384C36.8533 9.792 36.9493 9.04 36.9493 8.128C36.9493 7.216 36.8533 6.472 36.6613 5.896C36.4693 5.32 36.2133 4.872 35.8933 4.552C35.5733 4.232 35.1893 4.016 34.7413 3.904C34.3093 3.776 33.8453 3.712 33.3493 3.712H33.3013V12.688H33.3493ZM43.7559 12.544H47.3079V3.856H43.7559V0.399999H54.9879V3.856H51.4359V12.544H54.9879V16H43.7559V12.544ZM69.8105 13.6H67.6505L67.3625 12.448H67.2665C66.9785 12.88 66.6105 13.232 66.1625 13.504C65.7305 13.76 65.1785 13.888 64.5065 13.888C64.0585 13.888 63.6505 13.8 63.2825 13.624C62.9145 13.432 62.5945 13.176 62.3225 12.856C62.0505 12.536 61.8345 12.168 61.6745 11.752C61.5305 11.336 61.4585 10.896 61.4585 10.432C61.4585 9.776 61.5945 9.216 61.8665 8.752C62.1545 8.272 62.5545 7.872 63.0665 7.552C63.5785 7.232 64.1945 6.976 64.9145 6.784C65.6345 6.576 66.4345 6.416 67.3145 6.304V5.92C67.3145 5.52 67.2505 5.144 67.1225 4.792C66.9945 4.424 66.8025 4.104 66.5465 3.832C66.3065 3.544 65.9945 3.32 65.6105 3.16C65.2425 2.984 64.8105 2.896 64.3145 2.896C63.8185 2.896 63.3065 3.024 62.7785 3.28C62.2665 3.52 61.7945 3.92 61.3625 4.48C60.9465 5.024 60.6025 5.752 60.3305 6.664C60.0585 7.576 59.9225 8.688 59.9225 10C59.9225 11.232 60.0585 12.296 60.3305 13.192C60.6185 14.088 60.9945 14.824 61.4585 15.4C61.9225 15.976 62.4505 16.4 63.0425 16.672C63.6345 16.96 64.2345 17.104 64.8425 17.104C65.1945 17.104 65.5065 17.08 65.7785 17.032C66.0665 17 66.3305 16.944 66.5705 16.864C66.8105 16.8 67.0425 16.712 67.2665 16.6C67.4905 16.488 67.7145 16.368 67.9385 16.24L69.0905 18.256C68.3865 18.64 67.6905 18.952 67.0025 19.192C66.3305 19.432 65.5545 19.552 64.6745 19.552C63.7145 19.552 62.7785 19.36 61.8665 18.976C60.9545 18.592 60.1465 18 59.4425 17.2C58.7545 16.416 58.1945 15.424 57.7625 14.224C57.3465 13.008 57.1385 11.568 57.1385 9.904C57.1385 8.24 57.3305 6.816 57.7145 5.632C58.1145 4.432 58.6425 3.448 59.2985 2.68C59.9705 1.912 60.7465 1.352 61.6265 1C62.5065 0.632 63.4345 0.448 64.4105 0.448C65.3545 0.448 66.1625 0.6 66.8345 0.904C67.5225 1.208 68.0825 1.632 68.5145 2.176C68.9625 2.704 69.2905 3.336 69.4985 4.072C69.7065 4.792 69.8105 5.568 69.8105 6.4V13.6ZM64.4345 10.336C64.4345 10.608 64.5225 10.832 64.6985 11.008C64.8745 11.168 65.1225 11.248 65.4425 11.248C65.7625 11.248 66.0265 11.192 66.2345 11.08C66.4585 10.952 66.6745 10.8 66.8825 10.624V8.752C65.9545 8.896 65.3145 9.08 64.9625 9.304C64.6105 9.528 64.4345 9.872 64.4345 10.336ZM74.3611 11.224C74.9531 11.672 75.5771 12.04 76.2331 12.328C76.9051 12.6 77.5451 12.736 78.1531 12.736C78.8731 12.736 79.3691 12.64 79.6411 12.448C79.9291 12.256 80.0731 11.984 80.0731 11.632C80.0731 11.44 80.0251 11.28 79.9291 11.152C79.8331 11.024 79.6891 10.904 79.4971 10.792C79.3051 10.68 79.0651 10.576 78.7771 10.48C78.5051 10.368 78.1851 10.248 77.8171 10.12L75.8731 9.304C75.4251 9.144 75.0011 8.936 74.6011 8.68C74.2011 8.408 73.8491 8.096 73.5451 7.744C73.2571 7.376 73.0251 6.96 72.8491 6.496C72.6731 6.032 72.5851 5.52 72.5851 4.96C72.5851 4.288 72.7291 3.664 73.0171 3.088C73.3051 2.496 73.7051 1.984 74.2171 1.552C74.7451 1.104 75.3691 0.751999 76.0891 0.495999C76.8251 0.239999 77.6411 0.111999 78.5371 0.111999C79.4651 0.111999 80.3931 0.279999 81.3211 0.615999C82.2491 0.952 83.0971 1.48 83.8651 2.2L81.8011 4.792C81.2411 4.424 80.7131 4.144 80.2171 3.952C79.7211 3.76 79.1611 3.664 78.5371 3.664C77.3531 3.664 76.7611 4.016 76.7611 4.72C76.7611 5.088 76.9691 5.368 77.3851 5.56C77.8171 5.752 78.4251 5.992 79.2091 6.28L81.0091 7.024C82.0651 7.408 82.8731 7.944 83.4331 8.632C84.0091 9.32 84.2971 10.208 84.2971 11.296C84.2971 11.952 84.1611 12.584 83.8891 13.192C83.6171 13.8 83.2171 14.336 82.6891 14.8C82.1611 15.248 81.5051 15.608 80.7211 15.88C79.9531 16.152 79.0651 16.288 78.0571 16.288C77.0331 16.288 75.9851 16.112 74.9131 15.76C73.8571 15.392 72.8891 14.824 72.0091 14.056L74.3611 11.224ZM90.4798 3.856H85.9918V0.399999H99.0958V3.856H94.6078V16H90.4798V3.856ZM106.934 16.288C105.99 16.288 105.126 16.104 104.342 15.736C103.558 15.368 102.886 14.84 102.326 14.152C101.766 13.448 101.326 12.592 101.006 11.584C100.702 10.56 100.55 9.408 100.55 8.128C100.55 6.848 100.702 5.712 101.006 4.72C101.326 3.712 101.766 2.872 102.326 2.2C102.886 1.512 103.558 0.991999 104.342 0.639999C105.126 0.287999 105.99 0.111999 106.934 0.111999C107.878 0.111999 108.742 0.287999 109.526 0.639999C110.31 0.991999 110.982 1.512 111.542 2.2C112.102 2.888 112.534 3.728 112.838 4.72C113.158 5.712 113.318 6.848 113.318 8.128C113.318 9.408 113.158 10.56 112.838 11.584C112.534 12.592 112.102 13.448 111.542 14.152C110.982 14.84 110.31 15.368 109.526 15.736C108.742 16.104 107.878 16.288 106.934 16.288ZM106.934 12.736C107.606 12.736 108.134 12.328 108.518 11.512C108.902 10.68 109.094 9.552 109.094 8.128C109.094 6.704 108.902 5.608 108.518 4.84C108.134 4.056 107.606 3.664 106.934 3.664C106.262 3.664 105.734 4.056 105.35 4.84C104.966 5.608 104.774 6.704 104.774 8.128C104.774 9.552 104.966 10.68 105.35 11.512C105.734 12.328 106.262 12.736 106.934 12.736ZM119.645 7.504H121.037C122.701 7.504 123.533 6.816 123.533 5.44C123.533 4.768 123.317 4.304 122.885 4.048C122.469 3.792 121.853 3.664 121.037 3.664H119.645V7.504ZM123.821 16L121.133 10.768H119.645V16H115.517V0.399999H121.325C122.157 0.399999 122.949 0.479999 123.701 0.639999C124.469 0.799999 125.133 1.072 125.693 1.456C126.269 1.84 126.725 2.36 127.061 3.016C127.397 3.656 127.565 4.464 127.565 5.44C127.565 6.56 127.333 7.488 126.869 8.224C126.421 8.96 125.813 9.536 125.045 9.952L128.429 16H123.821ZM130.58 0.399999H141.14V3.856H134.708V6.304H140.18V9.76H134.708V12.544H141.38V16H130.58V0.399999Z" fill="#3A353B"/>
</svg>
